# xmcd
#
# Track frame offsets: 
#        150
#        21985
#        40602
#        57923
#        75774
#        91967
#        105708
#        118111
#        143792
#
# Disc length: 2126 seconds
#
# Revision: 0
# Processed by: cddbd v1.5.2PL0 Copyright (c) Steve Scherf et al.
# Submitted via: ExactAudioCopy v0.99pb5
#
DISCID=68084c09
DTITLE=The Jondo Trio - The Jondo Trio
DYEAR=2012
DGENRE=Blues
TTITLE0=Homesick
TTITLE1=Dealin' With The Devil
TTITLE2=Desire
TTITLE3=Eye On The Prize
TTITLE4=Cryin' Shame
TTITLE5=Another Day
TTITLE6=Stand Before The Lord
TTITLE7=Prodigal Blues
TTITLE8=Revival
EXTD=
EXTT0=
EXTT1=
EXTT2=
EXTT3=
EXTT4=
EXTT5=
EXTT6=
EXTT7=
EXTT8=
PLAYORDER=
